<?xml version="1.0" encoding="UTF-8"?>
<svg width="92px" height="82px" viewBox="0 0 92 82" version="1.1" xmlns="http://www.w3.org/2000/svg" xmlns:xlink="http://www.w3.org/1999/xlink">
    <!-- Generator: Sketch 53.2 (72643) - https://sketchapp.com -->
    <title>Group 9</title>
    <desc>Created with Sketch.</desc>
    <defs>
        <polygon id="path-1" points="0.150154412 0.552512 16.1225074 0.552512 16.1225074 16 0.150154412 16"></polygon>
        <polygon id="path-3" points="0.150154412 0.552512 16.1225074 0.552512 16.1225074 16 0.150154412 16"></polygon>
    </defs>
    <g id="New" stroke="none" stroke-width="1" fill="none" fill-rule="evenodd">
        <g id="Homepage" transform="translate(-675.000000, -3195.000000)">
            <g id="Group-9" transform="translate(675.000000, 3195.000000)">
                <path d="M0,0.178571429 L0,2.15998697 L12.5716861,2.15998697 L29.9759533,61.1785714 L78.1655521,61.1785714 L92,19.7134403 L19.8067391,19.7134403 L14.0456759,0.178571429 L0,0.178571429 Z M20.3910708,21.6941956 L89.257326,21.6941956 L76.7442047,59.1978161 L31.4499431,59.1978161 L20.3910708,21.6941956 Z" id="Fill-1" fill="#FFFFFF"></path>
                <g id="Group-8" transform="translate(30.000000, 65.178571)">
                    <g id="Group-4">
                        <mask id="mask-2" fill="white">
                            <use xlink:href="#path-1"></use>
                        </mask>
                        <g id="Clip-3"></g>
                        <path d="M8.13633088,2.472512 C4.82750735,2.472512 2.13544853,5.076032 2.13544853,8.276032 C2.13544853,11.476032 4.82750735,14.080192 8.13633088,14.080192 C11.4451544,14.080192 14.1372132,11.476032 14.1372132,8.276032 C14.1372132,5.076032 11.4451544,2.472512 8.13633088,2.472512 M8.13633088,16.000192 C3.73294853,16.000192 0.150154412,12.535232 0.150154412,8.276032 C0.150154412,4.017472 3.73294853,0.552512 8.13633088,0.552512 C12.5397132,0.552512 16.1225074,4.017472 16.1225074,8.276032 C16.1225074,12.535232 12.5397132,16.000192 8.13633088,16.000192" id="Fill-2" fill="#FFFFFF" mask="url(#mask-2)"></path>
                    </g>
                    <g id="Group-7" transform="translate(28.455882, 0.000000)">
                        <mask id="mask-4" fill="white">
                            <use xlink:href="#path-3"></use>
                        </mask>
                        <g id="Clip-6"></g>
                        <path d="M8.13633088,2.472512 C4.82750735,2.472512 2.13544853,5.076032 2.13544853,8.276032 C2.13544853,11.476032 4.82750735,14.080192 8.13633088,14.080192 C11.4451544,14.080192 14.1372132,11.476032 14.1372132,8.276032 C14.1372132,5.076032 11.4451544,2.472512 8.13633088,2.472512 M8.13633088,16.000192 C3.73294853,16.000192 0.150154412,12.535232 0.150154412,8.276032 C0.150154412,4.017472 3.73294853,0.552512 8.13633088,0.552512 C12.5397132,0.552512 16.1225074,4.017472 16.1225074,8.276032 C16.1225074,12.535232 12.5397132,16.000192 8.13633088,16.000192" id="Fill-5" fill="#FFFFFF" mask="url(#mask-4)"></path>
                    </g>
                </g>
            </g>
        </g>
    </g>
</svg>