<?xml version="1.0" encoding="UTF-8"?>
<svg width="89px" height="76px" viewBox="0 0 89 76" version="1.1" xmlns="http://www.w3.org/2000/svg" xmlns:xlink="http://www.w3.org/1999/xlink">
    <!-- Generator: Sketch 53.2 (72643) - https://sketchapp.com -->
    <title>Group 8</title>
    <desc>Created with Sketch.</desc>
    <defs>
        <polygon id="path-1" points="0.0298787879 0.37934996 19.610303 0.37934996 19.610303 75 0.0298787879 75"></polygon>
    </defs>
    <g id="New" stroke="none" stroke-width="1" fill="none" fill-rule="evenodd">
        <g id="Homepage" transform="translate(-433.000000, -3198.000000)">
            <g id="Group-8" transform="translate(433.000000, 3198.000000)">
                <path d="M16.2787079,2.59112311 C10.6167922,2.67335703 9.92966951,6.85358144 9.6825792,11.9900867 L9.14483102,26.5423761 C9.00977158,31.9984723 8.43156781,36.285227 2.36820813,38.1909359 C8.4826041,39.8138099 9.18466422,44.0812521 9.47843406,49.6382718 L10.4338084,64.0609805 C10.8308956,69.2959172 11.6368955,73.3484299 17.2988112,73.2661959 L19.9695027,73.2281939 L20,75.3656529 L16.7952947,75.4123767 C10.1717807,75.5083163 8.60832763,70.7181903 8.20065974,64.7356724 L7.23906143,49.8843505 C6.93969005,44.006494 6.46293645,40.5912943 0.0367212299,39.5079246 L0,36.9418525 C6.39011639,35.5663032 6.77039895,32.2457971 6.89798967,26.2545574 L7.4307587,11.3814311 C7.66664592,5.49609873 9.09006037,0.555833516 15.7135744,0.459893939 L18.9182797,0.413793103 L18.9493994,2.55249808 L16.2787079,2.59112311 Z" id="Fill-1" fill="#FFFFFF"></path>
                <polygon id="Fill-3" fill="#FFFFFF" points="58 5.4137931 32.8242588 71.4137931 31 71.4137931 56.1757412 5.4137931"></polygon>
                <g id="Group-7" transform="translate(69.000000, 0.413793)">
                    <mask id="mask-2" fill="white">
                        <use xlink:href="#path-1"></use>
                    </mask>
                    <g id="Clip-6"></g>
                    <path d="M3.14987879,0.380764463 C9.70321212,0.284070248 11.1244242,5.15783058 11.5201818,11.0047314 L12.4559394,25.7809711 C12.7492727,31.7351033 13.211697,35.0270455 19.5747273,36.2096901 L19.6104848,38.7621694 C13.2826061,40.0266322 12.9141212,43.4369628 12.7886667,49.2906818 L12.2692727,64.0886157 C12.0413939,70.050186 10.7571515,74.8570041 4.20321212,74.9543182 L1.08321212,75.000186 L1.05290909,72.8729132 L3.65351515,72.8344835 C9.16684848,72.7526653 9.83715152,68.700186 10.0759394,63.4824174 L10.6007879,49.1103099 C10.7310909,43.5758058 11.2947273,39.3107231 17.2001818,37.5212603 C11.2450303,35.8005992 10.5613939,31.5541116 10.2765455,26.1317975 L9.34442424,11.6747727 C8.95957576,6.57291322 8.17351515,2.43489669 2.66018182,2.51671488 L0.0595757576,2.55576446 L0.0298787879,0.427252066 L3.14987879,0.380764463 Z" id="Fill-5" fill="#FFFFFF" mask="url(#mask-2)"></path>
                </g>
            </g>
        </g>
    </g>
</svg>