<?xml version="1.0" encoding="UTF-8"?>
<svg width="83px" height="79px" viewBox="0 0 83 79" version="1.1" xmlns="http://www.w3.org/2000/svg" xmlns:xlink="http://www.w3.org/1999/xlink">
    <!-- Generator: Sketch 53.2 (72643) - https://sketchapp.com -->
    <title>Group 17</title>
    <desc>Created with Sketch.</desc>
    <defs>
        <polygon id="path-1" points="0.000113513514 0.436459459 20.5641081 0.436459459 20.5641081 20.999773 0.000113513514 20.999773"></polygon>
        <polygon id="path-3" points="0.000113513514 0.436459459 20.5642216 0.436459459 20.5642216 20.999773 0.000113513514 20.999773"></polygon>
        <polygon id="path-5" points="0.000113513514 0.436232432 20.5641081 0.436232432 20.5641081 20.999773 0.000113513514 20.999773"></polygon>
        <polygon id="path-7" points="0 79 83 79 83 1 0 1"></polygon>
    </defs>
    <g id="New" stroke="none" stroke-width="1" fill="none" fill-rule="evenodd">
        <g id="Homepage" transform="translate(-548.000000, -3195.000000)">
            <g id="Group-17" transform="translate(548.000000, 3195.000000)">
                <g id="Group-3" transform="translate(62.000000, 0.000000)">
                    <mask id="mask-2" fill="white">
                        <use xlink:href="#path-1"></use>
                    </mask>
                    <g id="Clip-2"></g>
                    <path d="M10.2821676,2.13893514 C5.55149189,2.13893514 1.70281622,5.98704324 1.70281622,10.7177189 C1.70281622,15.4483946 5.55149189,19.2970703 10.2821676,19.2970703 C15.0128432,19.2970703 18.8615189,15.4483946 18.8615189,10.7177189 C18.8615189,5.98704324 15.0128432,2.13893514 10.2821676,2.13893514 M10.2821676,20.999773 C4.61273514,20.999773 0.000113513514,16.3871514 0.000113513514,10.7177189 C0.000113513514,5.04828649 4.61273514,0.436232432 10.2821676,0.436232432 C15.9516,0.436232432 20.5642216,5.04828649 20.5642216,10.7177189 C20.5642216,16.3871514 15.9516,20.999773 10.2821676,20.999773" id="Fill-1" fill="#FFFFFF" mask="url(#mask-2)"></path>
                </g>
                <g id="Group-6">
                    <mask id="mask-4" fill="white">
                        <use xlink:href="#path-3"></use>
                    </mask>
                    <g id="Clip-5"></g>
                    <path d="M10.2821676,2.13893514 C5.55149189,2.13893514 1.70281622,5.98704324 1.70281622,10.7177189 C1.70281622,15.4483946 5.55149189,19.2970703 10.2821676,19.2970703 C15.0128432,19.2970703 18.8615189,15.4483946 18.8615189,10.7177189 C18.8615189,5.98704324 15.0128432,2.13893514 10.2821676,2.13893514 M10.2821676,20.999773 C4.61273514,20.999773 0.000113513514,16.3871514 0.000113513514,10.7177189 C0.000113513514,5.04828649 4.61273514,0.436232432 10.2821676,0.436232432 C15.9516,0.436232432 20.5642216,5.04828649 20.5642216,10.7177189 C20.5642216,16.3871514 15.9516,20.999773 10.2821676,20.999773" id="Fill-4" fill="#FFFFFF" mask="url(#mask-4)"></path>
                </g>
                <g id="Group-9" transform="translate(62.000000, 57.000000)">
                    <mask id="mask-6" fill="white">
                        <use xlink:href="#path-5"></use>
                    </mask>
                    <g id="Clip-8"></g>
                    <path d="M10.2821676,2.13893514 C5.55149189,2.13893514 1.70281622,5.98704324 1.70281622,10.7177189 C1.70281622,15.4483946 5.55149189,19.2970703 10.2821676,19.2970703 C15.0128432,19.2970703 18.8615189,15.4483946 18.8615189,10.7177189 C18.8615189,5.98704324 15.0128432,2.13893514 10.2821676,2.13893514 M10.2821676,20.999773 C4.61273514,20.999773 0.000113513514,16.3871514 0.000113513514,10.7177189 C0.000113513514,5.04828649 4.61273514,0.436232432 10.2821676,0.436232432 C15.9516,0.436232432 20.5642216,5.04828649 20.5642216,10.7177189 C20.5642216,16.3871514 15.9516,20.999773 10.2821676,20.999773" id="Fill-7" fill="#FFFFFF" mask="url(#mask-6)"></path>
                </g>
                <path d="M10.5,59.7388424 C5.66904946,59.7388424 1.73879444,63.6686263 1.73879444,68.4997102 C1.73879444,73.3307941 5.66904946,77.2611576 10.5,77.2611576 C15.3309505,77.2611576 19.2612056,73.3307941 19.2612056,68.4997102 C19.2612056,63.6686263 15.3309505,59.7388424 10.5,59.7388424 M10.5,79 C4.71039413,79 0,74.2894759 0,68.4997102 C0,62.7099445 4.71039413,58 10.5,58 C16.2896059,58 21,62.7099445 21,68.4997102 C21,74.2894759 16.2896059,79 10.5,79" id="Fill-10" fill="#FFFFFF"></path>
                <mask id="mask-8" fill="white">
                    <use xlink:href="#path-7"></use>
                </mask>
                <g id="Clip-13"></g>
                <polygon id="Fill-12" fill="#FFFFFF" mask="url(#mask-8)" points="11 59 13 59 13 20 11 20"></polygon>
                <polygon id="Fill-14" fill="#FFFFFF" mask="url(#mask-8)" points="20 11 63 11 63 9 20 9"></polygon>
                <polygon id="Fill-15" fill="#FFFFFF" mask="url(#mask-8)" points="71 59 73 59 73 20 71 20"></polygon>
                <polygon id="Fill-16" fill="#FFFFFF" mask="url(#mask-8)" points="21 68 63 68 63 66 21 66"></polygon>
            </g>
        </g>
    </g>
</svg>